#!OML:ASF F:\VICON\USERDATA\INSTALL\rory3\rory3.ASF
:FULLY-SPECIFIED
:DEGREES
991
root -0.755801 21.6335 4.6866 -0.374137 4.84204 0.798506
lowerback 4.05135 -0.681945 -1.84354
upperback 1.89638 -0.948269 3.8694
thorax -0.223688 -0.501842 5.07347
lowerneck -11.5507 1.21573 -9.64446
upperneck 43.3496 4.99641 0.301065
head 17.9157 0.539963 2.77671
rclavicle -2.49475e-014 1.90833e-014
rhumerus -34.0369 -9.50552 -73.0249
rradius 32.7718
rwrist 20.0245
rhand -19.7422 1.92876
rfingers 7.12502
rthumb 6.58872 -27.9487
lclavicle -2.49475e-014 1.90833e-014
lhumerus -34.6956 14.1783 80.1244
lradius 30.3283
lwrist -6.03268
lhand -9.90797 26.9033
lfingers 7.12502
lthumb 16.0723 56.2567
rfemur -25.3688 -12.0929 22.9169
rtibia 90.5351
rfoot -30.6413 11.9686
rtoes -12.5983
lfemur -8.38505 -2.42189 -24.0986
ltibia 11.6616
lfoot 10.4142 -2.93316
ltoes -8.50542
992
root -0.739703 21.6176 4.74063 -0.569056 4.90372 0.696717
lowerback 4.23353 -0.610826 -1.67619
upperback 2.03396 -0.849991 3.81419
thorax -0.197515 -0.453707 4.91805
lowerneck -11.724 1.15571 -9.60768
upperneck 43.2767 4.89607 0.348478
head 17.9219 0.513731 2.77845
rclavicle -3.8763e-015 1.59028e-015
rhumerus -34.0397 -10.1397 -72.9069
rradius 32.6506
rwrist 20.41
rhand -20.1097 2.55507
rfingers 7.12502
rthumb 6.23395 -27.3332
lclavicle -3.8763e-015 1.59028e-015
lhumerus -34.6717 14.3901 80.0167
lradius 30.4131
lwrist -6.24793
lhand -9.89868 27.3065
lfingers 7.12502
lthumb 16.0812 56.6593
rfemur -25.2691 -11.9669 22.8985
rtibia 91.1011
rfoot -30.233 11.7674
rtoes -13.6766
lfemur -8.60754 -2.32355 -24.0571
ltibia 12.8168
lfoot 9.6256 -2.93585
ltoes -7.06773
993
root -0.720829 21.5997 4.79585 -0.691918 4.9232 0.694891
lowerback 4.28992 -0.570052 -1.6373
upperback 2.17724 -0.797313 3.77868
thorax -0.0877738 -0.43086 4.85628
lowerneck -11.8366 1.11372 -9.73002
upperneck 43.126 4.84041 0.431623
head 17.8577 0.489855 2.82784
rclavicle -3.97569e-016 3.18055e-015
rhumerus -34.0009 -10.4827 -72.8577
rradius 32.6031
rwrist 20.4318
rhand -19.6006 2.20788
rfingers 7.12502
rthumb 6.72542 -27.6653
lclavicle -3.97569e-016 3.18055e-015
lhumerus -34.6847 14.6288 80.003
lradius 30.6311
lwrist -6.39629
lhand -9.83043 27.4275
lfingers 7.12502
lthumb 16.1469 56.7749
rfemur -25.2842 -11.8204 22.7621
rtibia 91.6732
rfoot -29.5581 11.4665
rtoes -14.8967
lfemur -8.78569 -2.28336 -24.1261
ltibia 13.7786
lfoot 9.01738 -2.9442
ltoes -4.09227
994
root -0.703196 21.5878 4.85854 -0.899731 4.86517 0.573641
lowerback 4.34224 -0.469166 -1.51329
upperback 2.35486 -0.661777 3.78393
thorax 0.0512948 -0.366766 4.7851
lowerneck -11.9075 1.06307 -9.85235
upperneck 43.0212 4.74483 0.576415
head 17.8092 0.457429 2.89969
rclavicle 1.87852e-014 2.8625e-014
rhumerus -33.9625 -11.0178 -72.7269
rradius 32.5283
rwrist 20.5906
rhand -18.9702 1.56093
rfingers 7.12502
rthumb 7.33395 -28.292
lclavicle 1.87852e-014 2.8625e-014
lhumerus -34.6445 14.8531 80.0221
lradius 30.7608
lwrist -6.67757
lhand -9.60342 26.9841
lfingers 7.12502
lthumb 16.3655 56.3137
rfemur -25.1987 -11.6556 22.763
rtibia 92.227
rfoot -28.6057 11.1354
rtoes -15.3229
lfemur -8.74209 -2.32732 -24.0395
ltibia 14.5481
lfoot 8.52289 -2.84242
ltoes -1.19293
995
root -0.684335 21.5785 4.91974 -1.10096 4.66719 0.513286
lowerback 4.48658 -0.315458 -1.43965
upperback 2.47909 -0.456211 3.75429
thorax 0.0782315 -0.264952 4.70461
lowerneck -11.9521 1.01296 -9.90264
upperneck 42.9231 4.63114 0.704869
head 17.7613 0.427011 2.94756
rclavicle -1.3418e-014 -2.70347e-014
rhumerus -34.0019 -11.4878 -72.622
rradius 32.4518
rwrist 20.6416
rhand -18.8048 1.39197
rfingers 7.12502
rthumb 7.49358 -28.4553
lclavicle -1.3418e-014 -2.70347e-014
lhumerus -34.7115 14.7685 80.0811
lradius 30.8265
lwrist -6.46026
lhand -9.4925 27
lfingers 7.12502
lthumb 16.4723 56.3207
rfemur -25.2521 -11.4652 22.6761
rtibia 92.8765
rfoot -27.3752 10.9639
rtoes -15.1043
lfemur -8.5275 -2.20241 -24.0326
ltibia 15.0272
lfoot 8.11645 -2.8834
ltoes 0.0597685
996
root -0.663888 21.5655 4.97749 -1.24349 4.39933 0.645907
lowerback 4.63073 -0.156519 -1.48803
upperback 2.57323 -0.248225 3.62578
thorax 0.0749095 -0.161571 4.58969
lowerneck -12.0037 0.971773 -9.89617
upperneck 42.8196 4.5052 0.849995
head 17.7126 0.402441 2.99071
rclavicle -1.21259e-014 9.54166e-015
rhumerus -34.067 -11.6879 -72.6822
rradius 32.4527
rwrist 20.5341
rhand -18.7995 1.33644
rfingers 7.12502
rthumb 7.49864 -28.5106
lclavicle -1.21259e-014 9.54166e-015
lhumerus -34.8396 14.5189 80.1146
lradius 30.9242
lwrist -5.95105
lhand -9.46379 27.4222
lfingers 7.12502
lthumb 16.4999 56.7406
rfemur -25.4576 -11.2667 22.3823
rtibia 93.6286
rfoot -26.0848 10.6847
rtoes -15.392
lfemur -8.22132 -2.00155 -24.2561
ltibia 15.25
lfoot 7.77609 -2.97976
ltoes 0.800645
997
root -0.642015 21.5531 5.03802 -1.32336 4.14635 0.92486
lowerback 4.67873 -0.050488 -1.63807
upperback 2.62772 -0.114719 3.44876
thorax 0.0919143 -0.0960899 4.48442
lowerneck -11.996 0.998259 -9.82839
upperneck 42.7779 4.48793 0.929602
head 17.6813 0.419912 3.01104
rclavicle 1.87852e-014 -1.27222e-014
rhumerus -34.1493 -11.6299 -72.8244
rradius 32.4887
rwrist 20.4655
rhand -18.8501 1.56574
rfingers 7.12502
rthumb 7.44989 -28.2831
lclavicle 1.87852e-014 -1.27222e-014
lhumerus -35.0485 14.2633 80.1263
lradius 31.1054
lwrist -5.55045
lhand -9.56919 27.4912
lfingers 7.12502
lthumb 16.3985 56.818
rfemur -25.7494 -11.0815 21.921
rtibia 94.43
rfoot -24.6429 10.3638
rtoes -15.2134
lfemur -7.84548 -1.81131 -24.657
ltibia 15.2744
lfoot 7.49264 -3.07278
ltoes 0.596015
